<?xml version="1.0" encoding="UTF-8"?><svg id="_레이어_2" xmlns="http://www.w3.org/2000/svg" viewBox="0 0 59.3 57.53"><defs><style>.cls-1{fill:#d3e20a;}.cls-2{fill:#94d626;}</style></defs><g id="_레이어_1-2"><path class="cls-1" d="m14.13,39.65c.48-1.23,1.07-2.46,1.74-3.7-2.98-2.33-5.43-5.02-7.24-7.85,1.83-3.12,4.2-6.23,7.09-9.12,6.86-6.86,14.94-10.87,21.61-11.34,3.26,2.19,5.96,5.17,7.8,8.66,1.1.04,2.13.2,3.09.47-1.97-3.67-4.81-6.8-8.24-9.12,2.87.24,5.37,1.24,7.23,3.1,1.59,1.59,2.55,3.65,2.94,6.01.32.15.63.32.93.5.12-4.12-1.01-7.72-3.55-10.26-3.51-3.51-9.06-4.34-15.22-2.86-2.13-.57-4.36-.88-6.67-.88-2.78,0-5.46.45-7.97,1.27,2.05-.58,4.22-.9,6.46-.9s4.5.32,6.6.93c-5.98,1.79-12.42,5.68-18.08,11.34-2.44,2.44-4.55,5.03-6.31,7.66-.26-.68-.48-1.37-.67-2.05h-.11s.05-.07.08-.11c-1.01-3.87-.79-7.75.91-11.18C10.59,2.04,21.68-1.04,33.13,2.1c.43-.08.85-.15,1.28-.22C21.02-2.46,7.69.85,2.98,10.39.37,15.68.89,21.91,3.85,27.77c-1.08,2.09-1.93,4.18-2.54,6.21-.61-2.1-.93-4.31-.93-6.6s.32-4.4.9-6.46c-.82,2.51-1.27,5.18-1.27,7.96,0,2.31.31,4.54.88,6.67-1.48,6.16-.65,11.7,2.86,15.22,2.54,2.54,6.14,3.68,10.26,3.55-.18-.3-.35-.61-.5-.93-2.36-.39-4.42-1.36-6-2.94-1.85-1.85-2.86-4.35-3.1-7.23,2.32,3.43,5.45,6.27,9.11,8.24-.27-.96-.43-1.99-.47-3.09-3.49-1.85-6.47-4.54-8.66-7.8.19-2.64.93-5.5,2.18-8.42,2.02,2.71,4.56,5.26,7.56,7.49Z"/><path class="cls-2" d="m52.69,13.92c.08.54.13,1.09.16,1.65,4.28,6.13,5.56,13.1,2.72,18.84-1.6,3.25-4.33,5.69-7.74,7.26,2.17-3.77,3.43-8.13,3.43-12.79,0-1.82-.19-3.59-.55-5.3.14.12.27.23.4.36,2.67,2.67,2.84,7.26.95,12.27,2.98-6.51,3.09-12.68-.37-16.13-.96-.96-2.13-1.64-3.46-2.06,0,0,0,0-.01,0-.24-.08-.49-.15-.75-.21-.02,0-.04,0-.06-.01-.24-.06-.48-.1-.73-.14-.03,0-.06-.01-.1-.02-.27-.04-.55-.08-.83-.1,0,0,0,0,0,0-6.12-.51-14.4,3.18-21.34,10.12-3.25,3.25-5.79,6.8-7.52,10.28,0,.01-.01.03-.02.04-.15.3-.29.61-.43.91,0,0,0,.01,0,.02-.28.61-.53,1.23-.76,1.83,0,0,0,0,0,0-1.11,2.95-1.59,5.78-1.38,8.26,0,0,0,0,0,0,.02.28.06.56.1.83,0,.03.01.06.02.09.04.25.09.5.14.74,0,.02,0,.04.01.05.06.26.13.51.21.75,0,0,0,0,0,.01.43,1.33,1.1,2.5,2.06,3.46,3.45,3.45,9.62,3.35,16.13.37-5.01,1.89-9.6,1.72-12.26-.95-.13-.13-.25-.26-.36-.4,1.71.36,3.48.55,5.3.55,6.98,0,13.31-2.8,17.94-7.33,6.32-1.26,11.47-4.61,14.04-9.82,3.54-7.17,1.33-16.07-4.92-23.44Zm-28.57,37.2c-1.87,0-3.69-.22-5.43-.63-.45-2.18-.18-4.76.73-7.51.38.2.75.4,1.14.59,5.27,2.6,10.72,3.95,15.81,4.15-3.58,2.16-7.77,3.4-12.25,3.4Zm17.47-7.66c-5.88.84-12.72-.25-19.25-3.47-.45-.22-.9-.46-1.34-.69,1.51-2.93,3.67-5.9,6.41-8.64,6.55-6.55,14.45-9.82,19.84-8.71.41,1.74.63,3.56.63,5.43,0,6.21-2.39,11.86-6.29,16.09Z"/></g></svg>