<svg width="434" height="101" viewBox="0 0 434 101" fill="none" xmlns="http://www.w3.org/2000/svg">
<path d="M52.1768 0L0 33.3316L26.0866 50.0011L52.1768 33.3316L78.2634 50.0011L104.35 33.3316L52.1768 0Z" fill="url(#paint0_linear_35_15)"/>
<path d="M104.35 33.3308L52.1768 66.6661L0 33.3308V66.6661L52.1768 100.001L104.35 66.6661V33.3308Z" fill="url(#paint1_linear_35_15)"/>
<path d="M281.193 24.4835H263.958C252.974 24.4835 244.072 33.3857 244.072 44.3693V55.6394C244.072 66.623 252.974 75.5253 263.958 75.5253H281.193C292.176 75.5253 301.079 66.623 301.079 55.6394V44.3693C301.079 33.3857 292.176 24.4835 281.193 24.4835ZM287.821 55.6394C287.821 59.3018 284.852 62.268 281.193 62.268H263.958C260.295 62.268 257.329 59.2982 257.329 55.6394V44.3693C257.329 40.7069 260.299 37.7407 263.958 37.7407H281.193C284.855 37.7407 287.821 40.7069 287.821 44.3693V55.6394Z" fill="white"/>
<path d="M358.926 25.1476H312.526C309.781 25.1476 307.555 27.374 307.555 30.119V74.8622H320.812V38.4048H334.069V74.8622H347.326V38.4048H355.612C358.357 38.4048 360.583 40.6312 360.583 43.3762V74.8622H373.841V40.0619C373.841 31.8233 367.161 25.1476 358.926 25.1476Z" fill="white"/>
<path d="M191.698 40.0619V74.8622H204.955V43.3762C204.955 40.6312 207.181 38.4048 209.926 38.4048H239.755V25.1476H206.612C198.373 25.1476 191.698 31.8233 191.698 40.0619Z" fill="white"/>
<path d="M418.255 25.1476H382.461V38.4048H414.941C417.686 38.4048 419.912 40.6312 419.912 43.3762V45.0334H394.722C386.483 45.0334 379.807 51.7092 379.807 59.9478C379.807 68.1864 386.487 74.8622 394.722 74.8622H428.198C430.943 74.8622 433.17 72.6357 433.17 69.8907V40.0619C433.17 31.8233 426.494 25.1476 418.255 25.1476ZM419.619 61.7717H393.688C392.68 61.7717 391.864 60.9559 391.864 59.9478C391.864 58.9397 392.68 58.1238 393.688 58.1238H419.619C420.627 58.1238 421.443 58.9397 421.443 59.9478C421.443 60.9559 420.627 61.7717 419.619 61.7717Z" fill="white"/>
<path d="M187.051 25.4775H170.283L152.261 44.979V25.1476H138.674V74.8622H152.261V55.0162L170.961 74.8622H187.395L164.318 50.3348L187.051 25.4775Z" fill="white"/>
<defs>
<linearGradient id="paint0_linear_35_15" x1="52.175" y1="0" x2="52.175" y2="50.0011" gradientUnits="userSpaceOnUse">
<stop stop-color="#70DE2C"/>
<stop offset="1" stop-color="#8EE558"/>
</linearGradient>
<linearGradient id="paint1_linear_35_15" x1="52.175" y1="33.3308" x2="52.175" y2="100.001" gradientUnits="userSpaceOnUse">
<stop stop-color="#70DE2C"/>
<stop offset="1" stop-color="#8EE558"/>
</linearGradient>
</defs>
</svg>
