<svg width="512" height="108" viewBox="0 0 512 108" fill="none" xmlns="http://www.w3.org/2000/svg">
<g clip-path="url(#clip0_1756_1833)">
<path d="M196.269 29.6425H175.314V87.3702H167.984V29.6425H147.029V23.3467H196.237V29.6425H196.269Z" fill="white"/>
<path d="M242.187 42.3596V87.3702H235.328V78.3179C232.571 83.3609 225.618 88.4665 216.471 88.4665C202.658 88.4665 193.418 77.3156 193.418 64.8492C193.418 52.3828 202.658 41.2319 216.471 41.2319C225.618 41.2319 232.759 46.2749 235.234 51.4744V42.3282H242.187V42.3596ZM217.662 82.6092C226.338 82.6092 235.046 76.2193 235.046 64.8492C235.046 53.4791 226.369 47.0893 217.662 47.0893C207.231 47.0893 200.56 55.2332 200.56 64.8492C200.56 74.4653 207.231 82.6092 217.662 82.6092Z" fill="white"/>
<path d="M300.259 56.7994H293.305C290.736 51.4119 285.537 47.1833 277.581 47.1833C266.869 47.1833 260.667 55.7031 260.667 64.8493C260.667 73.9955 266.9 82.5153 277.581 82.5153C285.819 82.5153 290.768 78.412 293.305 72.8992H300.259C297.346 81.6695 289.014 88.4352 277.675 88.4352C263.047 88.4352 253.619 77.7229 253.619 64.818C253.619 51.913 263.047 41.2007 277.675 41.2007C289.014 41.2007 297.346 47.9664 300.259 56.7367V56.7994Z" fill="white"/>
<path d="M318.552 87.3703H311.41V20.5591H318.552V51.036C321.308 44.8028 327.416 41.2634 335.121 41.2634C346.084 41.2634 353.038 49.8771 353.038 61.5604V87.3703H345.896V62.9386C345.896 54.0743 342.044 47.6532 332.897 47.6532C324.472 47.6532 318.52 54.2309 318.52 62.7507V87.3703H318.552Z" fill="white"/>
<path d="M398.236 42.3594H405.816L386.96 86.2737L378.44 106.414H371.111L379.881 85.7412L361.307 42.3907H368.73L383.64 78.4431L398.173 42.3907L398.236 42.3594Z" fill="white"/>
<path d="M410.295 64.8492C410.295 52.5081 419.723 41.2319 434.633 41.2319C449.542 41.2319 458.97 52.4768 458.97 64.8492C458.97 77.2217 449.542 88.4665 434.633 88.4665C419.723 88.4665 410.295 77.2217 410.295 64.8492ZM417.249 64.8492C417.249 73.9954 423.826 82.5152 434.633 82.5152C445.439 82.5152 452.017 73.9954 452.017 64.8492C452.017 55.703 445.533 47.1832 434.633 47.1832C423.732 47.1832 417.249 55.797 417.249 64.8492Z" fill="white"/>
<path d="M477.515 87.3701H470.373V42.3595H477.233V51.1298C479.613 44.74 486.097 41.2632 494.053 41.2632C505.016 41.2632 511.97 49.8769 511.97 61.5603V87.3701H504.828V62.9385C504.828 54.0741 500.975 47.653 491.829 47.653C483.403 47.653 477.452 54.2308 477.452 62.7505V87.3701H477.515Z" fill="white"/>
<path d="M26.3423 73.9327C27.2507 71.6461 28.3157 69.3283 29.5999 67.0104C24.0558 62.6565 19.4827 57.6449 16.0998 52.3827C19.514 46.5567 23.9305 40.762 29.318 35.3745C42.0976 22.5949 57.1638 15.1088 69.5989 14.2317C75.6755 18.3037 80.7185 23.8791 84.164 30.3942C86.1999 30.4569 88.1419 30.7701 89.9273 31.2712C86.2626 24.4429 80.969 18.5856 74.5792 14.2631C79.9354 14.7016 84.6025 16.5809 88.048 20.0264C91.0236 23.0021 92.809 26.8234 93.5294 31.2399C94.1246 31.5218 94.6884 31.8351 95.2522 32.1796C95.4714 24.4742 93.3728 17.7712 88.6118 13.0415C82.0653 6.49504 71.7289 4.9289 60.2334 7.71662C56.2555 6.65165 52.0896 6.08784 47.7984 6.08784C42.5988 6.08784 37.6185 6.93355 32.9514 8.46836C36.7728 7.37207 40.8134 6.80826 45.0106 6.80826C49.2079 6.80826 53.4051 7.40339 57.3204 8.53101C46.1696 11.8825 34.173 19.1181 23.6173 29.6738C19.0755 34.2156 15.1288 39.0706 11.8713 43.9569C11.4014 42.6727 10.9629 41.4198 10.6184 40.1356H10.4304C10.4304 40.1356 10.5244 40.0103 10.5871 39.9163C8.7077 32.7121 9.11489 25.4766 12.2785 19.0867C19.7333 3.80129 40.4062 -1.93076 61.7683 3.92658C62.5513 3.76997 63.3657 3.64468 64.1488 3.51938C39.1846 -4.59318 14.3458 1.57738 5.54411 19.3686C0.689098 29.2353 1.6601 40.856 7.17289 51.7876C5.16824 55.6716 3.57078 59.5869 2.44317 63.377C1.31555 59.4616 0.720421 55.327 0.720421 51.0672C0.720421 46.8073 1.31555 42.8606 2.38052 39.0393C0.845711 43.7063 0 48.718 0 53.8862C0 58.1774 0.563808 62.3433 1.62878 66.3213C-1.12762 77.8167 0.407195 88.1532 6.95363 94.6996C11.6833 99.4293 18.3864 101.559 26.0918 101.34C25.7472 100.776 25.434 100.212 25.1521 99.6173C20.7356 98.8968 16.9142 97.0801 13.9699 94.1358C10.5244 90.6903 8.64505 86.0232 8.20653 80.6671C12.5291 87.0569 18.3551 92.3504 25.1834 96.0152C24.6822 94.2298 24.369 92.3191 24.3064 90.2518C17.7913 86.8063 12.2472 81.7947 8.17521 75.7181C8.51976 70.8004 9.89796 65.4756 12.2472 60.0254C16.0059 65.0684 20.7356 69.8294 26.3423 73.9953V73.9327Z" fill="#D3E20A"/>
<path d="M98.2592 25.9777C98.4158 26.98 98.5097 28.0137 98.5411 29.0473C106.528 40.4801 108.909 53.479 103.615 64.1913C100.608 70.2366 95.5341 74.8097 89.1756 77.7227C93.2162 70.7064 95.5654 62.5625 95.5654 53.8548C95.5654 50.472 95.2209 47.1518 94.5318 43.9882C94.7823 44.2075 95.0329 44.4267 95.2835 44.6773C100.264 49.6576 100.577 58.2087 97.0376 67.5428C102.613 55.421 102.801 43.8942 96.3485 37.4731C94.5631 35.6877 92.3705 34.4035 89.896 33.6204C89.4262 33.4638 88.9877 33.3385 88.4865 33.2445C88.4552 33.2445 88.4238 33.2445 88.3925 33.2445C87.954 33.1506 87.4842 33.0566 87.0143 32.9626C86.9517 32.9626 86.889 32.9626 86.8264 32.9313C86.3252 32.8373 85.7927 32.7747 85.2916 32.7434C73.8901 31.7724 58.4481 38.6634 45.5118 51.5996C39.4352 57.6762 34.7055 64.2853 31.5106 70.7691C31.5106 70.7691 31.5106 70.8317 31.4793 70.8317C31.1974 71.3955 30.9468 71.9593 30.6649 72.5231C30.6649 72.5231 30.6649 72.5231 30.6649 72.5545C30.1324 73.7134 29.6626 74.841 29.2554 75.9686C27.1881 81.4814 26.2797 86.7436 26.6869 91.348C26.7182 91.8805 26.7809 92.3817 26.8748 92.8829C26.8748 92.9455 26.8748 93.0081 26.8748 93.0395C26.9375 93.5093 27.0315 93.9791 27.1568 94.4177C27.1568 94.449 27.1568 94.4803 27.1568 94.5116C27.282 94.9815 27.4073 95.4513 27.5326 95.9212C28.3157 98.3956 29.5999 100.588 31.3853 102.374C37.8065 108.795 49.3332 108.607 61.4551 103.063C52.1209 106.602 43.5698 106.258 38.5895 101.309C38.3389 101.058 38.1197 100.807 37.9004 100.557C41.0953 101.246 44.3842 101.591 47.7671 101.591C60.7973 101.591 72.5746 96.391 81.2196 87.9339C92.997 85.5847 102.613 79.3515 107.405 69.6101C114.014 56.2354 109.88 39.6344 98.2278 25.915L98.2592 25.9777ZM44.9793 95.326C41.5025 95.326 38.1197 94.9188 34.8621 94.1671C34.0164 90.0951 34.5176 85.2715 36.2403 80.1659C36.9294 80.5417 37.6498 80.9176 38.3703 81.2622C48.2056 86.1172 58.3541 88.623 67.8449 88.9988C61.1731 93.0081 53.3738 95.326 45.0107 95.326H44.9793ZM77.5549 81.0429C66.592 82.609 53.8436 80.5731 41.6591 74.5591C40.8134 74.1519 39.9677 73.7134 39.1533 73.2749C41.9724 67.8247 46.013 62.2806 51.1186 57.175C63.3344 44.9592 78.056 38.8513 88.1106 40.9186C88.8624 44.1761 89.2696 47.559 89.2696 51.0358C89.2696 62.6252 84.8217 73.1496 77.5549 81.0429Z" fill="#94D626"/>
</g>
<defs>
<clipPath id="clip0_1756_1833">
<rect width="512" height="107.28" fill="white"/>
</clipPath>
</defs>
</svg>
