<svg width="512" height="108" viewBox="0 0 512 108" fill="none" xmlns="http://www.w3.org/2000/svg">
<g clip-path="url(#clip0_1756_1833)">
<path d="M196.269 29.6313H175.314V87.3589H167.984V29.6313H147.029V23.3354H196.237V29.6313H196.269Z" fill="#303030"/>
<path d="M242.187 42.3483V87.359H235.328V78.3067C232.571 83.3497 225.618 88.4553 216.471 88.4553C202.658 88.4553 193.418 77.3044 193.418 64.838C193.418 52.3716 202.658 41.2207 216.471 41.2207C225.618 41.2207 232.759 46.2637 235.234 51.4632V42.317H242.187V42.3483ZM217.662 82.5979C226.338 82.5979 235.046 76.2081 235.046 64.838C235.046 53.4679 226.369 47.078 217.662 47.078C207.231 47.078 200.56 55.2219 200.56 64.838C200.56 74.454 207.231 82.5979 217.662 82.5979Z" fill="#303030"/>
<path d="M300.259 56.7881H293.305C290.736 51.4006 285.537 47.1721 277.581 47.1721C266.869 47.1721 260.667 55.6918 260.667 64.8381C260.667 73.9843 266.9 82.504 277.581 82.504C285.819 82.504 290.768 78.4008 293.305 72.888H300.259C297.346 81.6583 289.014 88.424 277.675 88.424C263.047 88.424 253.619 77.7117 253.619 64.8067C253.619 51.9018 263.047 41.1895 277.675 41.1895C289.014 41.1895 297.346 47.9551 300.259 56.7255V56.7881Z" fill="#303030"/>
<path d="M318.552 87.3591H311.41V20.5479H318.552V51.0248C321.308 44.7916 327.416 41.2521 335.121 41.2521C346.084 41.2521 353.038 49.8658 353.038 61.5492V87.3591H345.896V62.9274C345.896 54.0631 342.044 47.6419 332.897 47.6419C324.472 47.6419 318.52 54.2197 318.52 62.7395V87.3591H318.552Z" fill="#303030"/>
<path d="M398.236 42.3481H405.816L386.96 86.2625L378.44 106.403H371.111L379.881 85.73L361.307 42.3795H368.73L383.64 78.4318L398.173 42.3795L398.236 42.3481Z" fill="#303030"/>
<path d="M410.295 64.838C410.295 52.4969 419.723 41.2207 434.633 41.2207C449.542 41.2207 458.97 52.4655 458.97 64.838C458.97 77.2104 449.542 88.4553 434.633 88.4553C419.723 88.4553 410.295 77.2104 410.295 64.838ZM417.249 64.838C417.249 73.9842 423.826 82.504 434.633 82.504C445.439 82.504 452.017 73.9842 452.017 64.838C452.017 55.6918 445.533 47.172 434.633 47.172C423.732 47.172 417.249 55.7857 417.249 64.838Z" fill="#303030"/>
<path d="M477.515 87.3589H470.373V42.3482H477.233V51.1186C479.613 44.7288 486.097 41.252 494.053 41.252C505.016 41.252 511.97 49.8657 511.97 61.549V87.3589H504.828V62.9272C504.828 54.0629 500.975 47.6418 491.829 47.6418C483.403 47.6418 477.452 54.2195 477.452 62.7393V87.3589H477.515Z" fill="#303030"/>
<path d="M26.3423 73.9215C27.2507 71.6349 28.3157 69.317 29.5999 66.9992C24.0558 62.6453 19.4827 57.6337 16.0998 52.3715C19.514 46.5455 23.9305 40.7508 29.318 35.3633C42.0976 22.5836 57.1638 15.0975 69.5989 14.2205C75.6755 18.2924 80.7185 23.8679 84.164 30.383C86.1999 30.4456 88.1419 30.7589 89.9273 31.26C86.2626 24.4317 80.969 18.5743 74.5792 14.2518C79.9354 14.6903 84.6025 16.5697 88.048 20.0152C91.0236 22.9908 92.809 26.8122 93.5294 31.2287C94.1246 31.5106 94.6884 31.8238 95.2522 32.1684C95.4714 24.463 93.3728 17.76 88.6118 13.0302C82.0653 6.48381 71.7289 4.91767 60.2334 7.70539C56.2555 6.64042 52.0896 6.07661 47.7984 6.07661C42.5988 6.07661 37.6185 6.92232 32.9514 8.45713C36.7728 7.36084 40.8134 6.79703 45.0106 6.79703C49.2079 6.79703 53.4051 7.39216 57.3204 8.51978C46.1696 11.8713 34.173 19.1068 23.6173 29.6626C19.0755 34.2043 15.1288 39.0594 11.8713 43.9457C11.4014 42.6615 10.9629 41.4086 10.6184 40.1243H10.4304C10.4304 40.1243 10.5244 39.999 10.5871 39.9051C8.7077 32.7009 9.11489 25.4653 12.2785 19.0755C19.7333 3.79006 40.4062 -1.94199 61.7683 3.91535C62.5513 3.75874 63.3657 3.63344 64.1488 3.50815C39.1846 -4.60441 14.3458 1.56615 5.54411 19.3574C0.689098 29.224 1.6601 40.8448 7.17289 51.7764C5.16824 55.6604 3.57078 59.5757 2.44317 63.3657C1.31555 59.4504 0.720421 55.3158 0.720421 51.0559C0.720421 46.7961 1.31555 42.8494 2.38052 39.028C0.845711 43.6951 0 48.7067 0 53.875C0 58.1662 0.563808 62.3321 1.62878 66.3101C-1.12762 77.8055 0.407195 88.1419 6.95363 94.6884C11.6833 99.4181 18.3864 101.548 26.0918 101.329C25.7472 100.765 25.434 100.201 25.1521 99.606C20.7356 98.8856 16.9142 97.0689 13.9699 94.1246C10.5244 90.6791 8.64505 86.012 8.20653 80.6558C12.5291 87.0457 18.3551 92.3392 25.1834 96.0039C24.6822 94.2185 24.369 92.3079 24.3064 90.2406C17.7913 86.7951 12.2472 81.7834 8.17521 75.7069C8.51976 70.7892 9.89796 65.4643 12.2472 60.0142C16.0059 65.0572 20.7356 69.8182 26.3423 73.9841V73.9215Z" fill="#D3E20A"/>
<path d="M98.2592 25.9665C98.4158 26.9688 98.5097 28.0024 98.5411 29.0361C106.528 40.4688 108.909 53.4677 103.615 64.1801C100.608 70.2254 95.5341 74.7985 89.1756 77.7115C93.2162 70.6952 95.5654 62.5513 95.5654 53.8436C95.5654 50.4608 95.2209 47.1406 94.5318 43.977C94.7823 44.1962 95.0329 44.4155 95.2835 44.6661C100.264 49.6464 100.577 58.1975 97.0376 67.5316C102.613 55.4097 102.801 43.883 96.3485 37.4619C94.5631 35.6765 92.3705 34.3922 89.896 33.6092C89.4262 33.4526 88.9877 33.3273 88.4865 33.2333C88.4552 33.2333 88.4238 33.2333 88.3925 33.2333C87.954 33.1393 87.4842 33.0454 87.0143 32.9514C86.9517 32.9514 86.889 32.9514 86.8264 32.9201C86.3252 32.8261 85.7927 32.7635 85.2916 32.7321C73.8901 31.7611 58.4481 38.6521 45.5118 51.5884C39.4352 57.665 34.7055 64.274 31.5106 70.7578C31.5106 70.7578 31.5106 70.8205 31.4793 70.8205C31.1974 71.3843 30.9468 71.9481 30.6649 72.5119C30.6649 72.5119 30.6649 72.5119 30.6649 72.5432C30.1324 73.7022 29.6626 74.8298 29.2554 75.9574C27.1881 81.4702 26.2797 86.7324 26.6869 91.3368C26.7182 91.8693 26.7809 92.3705 26.8748 92.8716C26.8748 92.9343 26.8748 92.9969 26.8748 93.0282C26.9375 93.4981 27.0315 93.9679 27.1568 94.4064C27.1568 94.4378 27.1568 94.4691 27.1568 94.5004C27.282 94.9702 27.4073 95.4401 27.5326 95.9099C28.3157 98.3844 29.5999 100.577 31.3853 102.362C37.8065 108.784 49.3332 108.596 61.4551 103.051C52.1209 106.591 43.5698 106.246 38.5895 101.297C38.3389 101.047 38.1197 100.796 37.9004 100.546C41.0953 101.235 44.3842 101.579 47.7671 101.579C60.7973 101.579 72.5746 96.3798 81.2196 87.9226C92.997 85.5734 102.613 79.3402 107.405 69.5989C114.014 56.2241 109.88 39.6231 98.2278 25.9038L98.2592 25.9665ZM44.9793 95.3148C41.5025 95.3148 38.1197 94.9076 34.8621 94.1559C34.0164 90.0839 34.5176 85.2602 36.2403 80.1546C36.9294 80.5305 37.6498 80.9064 38.3703 81.2509C48.2056 86.1059 58.3541 88.6117 67.8449 88.9876C61.1731 92.9969 53.3738 95.3148 45.0107 95.3148H44.9793ZM77.5549 81.0317C66.592 82.5978 53.8436 80.5618 41.6591 74.5479C40.8134 74.1407 39.9677 73.7022 39.1533 73.2636C41.9724 67.8135 46.013 62.2694 51.1186 57.1638C63.3344 44.948 78.056 38.8401 88.1106 40.9074C88.8624 44.1649 89.2696 47.5478 89.2696 51.0246C89.2696 62.614 84.8217 73.1384 77.5549 81.0317Z" fill="#94D626"/>
</g>
<defs>
<clipPath id="clip0_1756_1833">
<rect width="512" height="107.28" fill="white"/>
</clipPath>
</defs>
</svg>
