<svg width="295" height="52" viewBox="0 0 295 52" fill="none" xmlns="http://www.w3.org/2000/svg">
<path d="M142.519 0.483459H125.284C114.3 0.483459 105.398 9.38567 105.398 20.3693V31.6394C105.398 42.623 114.3 51.5252 125.284 51.5252H142.519C153.503 51.5252 162.405 42.623 162.405 31.6394V20.3693C162.405 9.38567 153.503 0.483459 142.519 0.483459ZM149.147 31.6394C149.147 35.3018 146.178 38.268 142.519 38.268H125.284C121.621 38.268 118.655 35.2982 118.655 31.6394V20.3693C118.655 16.7069 121.625 13.7407 125.284 13.7407H142.519C146.181 13.7407 149.147 16.7069 149.147 20.3693V31.6394Z" fill="white"/>
<path d="M220.252 1.14754H173.852C171.107 1.14754 168.881 3.374 168.881 6.119V50.8621H182.138V14.4048H195.395V50.8621H208.652V14.4048H216.938C219.683 14.4048 221.91 16.6312 221.91 19.3762V50.8621H235.167V16.0619C235.167 7.82329 228.487 1.14754 220.252 1.14754Z" fill="white"/>
<path d="M53.0237 16.0619V50.8621H66.281V19.3762C66.281 16.6312 68.5074 14.4048 71.2524 14.4048H101.081V1.14754H67.9381C59.6995 1.14754 53.0237 7.82329 53.0237 16.0619Z" fill="white"/>
<path d="M279.581 1.14754H243.788V14.4048H276.267C279.012 14.4048 281.239 16.6312 281.239 19.3762V21.0334H256.048C247.809 21.0334 241.133 27.7091 241.133 35.9478C241.133 44.1864 247.813 50.8621 256.048 50.8621H289.524C292.269 50.8621 294.496 48.6357 294.496 45.8907V16.0619C294.496 7.82329 287.82 1.14754 279.581 1.14754ZM280.945 37.7717H255.014C254.006 37.7717 253.19 36.9558 253.19 35.9478C253.19 34.9397 254.006 34.1238 255.014 34.1238H280.945C281.953 34.1238 282.769 34.9397 282.769 35.9478C282.769 36.9558 281.953 37.7717 280.945 37.7717Z" fill="white"/>
<path d="M48.3767 1.47752H31.6093L13.5873 20.979V1.14754H0.00012207V50.8621H13.5873V31.0162L32.2874 50.8621H48.7212L25.6443 26.3348L48.3767 1.47752Z" fill="white"/>
</svg>
